# Blender 4.0.2
# www.blender.org
o Cube
v 1.000000 1.000000 -1.000000
v 1.000000 -1.000000 -1.000000
v 1.000000 1.000000 1.000000
v 1.000000 -1.000000 1.000000
v -1.000000 1.000000 -1.000000
v -1.000000 -1.000000 -1.000000
v -1.000000 1.000000 1.000000
v -1.000000 -1.000000 1.000000
v 0.597981 1.656577 -0.597981
v 0.597981 1.656577 0.597981
v -0.597981 1.656577 -0.597981
v -0.597981 1.656577 0.597981
v 0.597981 2.343648 -0.597981
v 0.597981 2.343648 0.597981
v -0.597981 2.343648 -0.597981
v -0.597981 2.343648 0.597981
v 0.833402 2.833651 -0.833402
v 0.833402 2.833651 0.833402
v -0.833402 2.833651 -0.833402
v -0.833402 2.833651 0.833402
v 0.833402 4.060439 -0.833402
v 0.833402 4.060439 0.833402
v -0.833402 4.060439 -0.833402
v -0.833402 4.060439 0.833402
vn -0.0000 0.5222 0.8528
vn -0.0000 -0.0000 1.0000
vn -1.0000 -0.0000 -0.0000
vn -0.0000 -1.0000 -0.0000
vn 1.0000 -0.0000 -0.0000
vn -0.0000 -0.0000 -1.0000
vn -0.8528 0.5222 -0.0000
vn 0.8528 0.5222 -0.0000
vn -0.0000 0.5222 -0.8528
vn -0.9014 -0.4331 -0.0000
vn -0.0000 -0.4331 0.9014
vn -0.0000 -0.4331 -0.9014
vn 0.9014 -0.4331 -0.0000
vn -0.0000 1.0000 -0.0000
vt 0.625000 0.750000
vt 0.625000 1.000000
vt 0.375000 1.000000
vt 0.375000 0.750000
vt 0.625000 0.000000
vt 0.375000 0.250000
vt 0.375000 0.000000
vt 0.375000 0.500000
vt 0.125000 0.750000
vt 0.125000 0.500000
vt 0.625000 0.500000
vt 0.625000 0.250000
vt 0.875000 0.500000
vt 0.875000 0.750000
s 0
f 3/1/1 12/2/1 7/2/1
f 3/1/2 8/3/2 4/4/2
f 7/5/3 6/6/3 8/7/3
f 2/8/4 8/9/4 6/10/4
f 1/11/5 4/4/5 2/8/5
f 5/12/6 2/8/6 6/6/6
f 11/12/6 13/11/6 9/11/6
f 7/5/7 11/12/7 5/12/7
f 1/11/8 10/1/8 3/1/8
f 5/12/9 9/11/9 1/11/9
f 16/5/10 19/12/10 15/12/10
f 9/11/5 14/1/5 10/1/5
f 12/5/3 15/12/3 11/12/3
f 10/1/2 16/2/2 12/2/2
f 20/5/3 23/12/3 19/12/3
f 14/1/11 20/2/11 16/2/11
f 15/12/12 17/11/12 13/11/12
f 13/11/13 18/1/13 14/1/13
f 23/13/14 22/1/14 21/11/14
f 18/1/2 24/2/2 20/2/2
f 19/12/6 21/11/6 17/11/6
f 17/11/5 22/1/5 18/1/5
f 3/1/1 10/1/1 12/2/1
f 3/1/2 7/2/2 8/3/2
f 7/5/3 5/12/3 6/6/3
f 2/8/4 4/4/4 8/9/4
f 1/11/5 3/1/5 4/4/5
f 5/12/6 1/11/6 2/8/6
f 11/12/6 15/12/6 13/11/6
f 7/5/7 12/5/7 11/12/7
f 1/11/8 9/11/8 10/1/8
f 5/12/9 11/12/9 9/11/9
f 16/5/10 20/5/10 19/12/10
f 9/11/5 13/11/5 14/1/5
f 12/5/3 16/5/3 15/12/3
f 10/1/2 14/1/2 16/2/2
f 20/5/3 24/5/3 23/12/3
f 14/1/11 18/1/11 20/2/11
f 15/12/12 19/12/12 17/11/12
f 13/11/13 17/11/13 18/1/13
f 23/13/14 24/14/14 22/1/14
f 18/1/2 22/1/2 24/2/2
f 19/12/6 23/12/6 21/11/6
f 17/11/5 21/11/5 22/1/5
